# xmcd CD database file
#
# Track frame offsets:
#	150
#	22127
#	43490
#	66495
#	89770
#	114537
#	135115
#	158000
#	183780
#	203252
#	226277
#
# Disc length: 3219 seconds
#
# Revision: 0
# Processed by: cddbd v1.5PL3 Copyright (c) Steve Scherf et al.
# Submitted via: CDex 1.51
#
DISCID=900c910b
DTITLE=GUN - Gallus
DYEAR=1992
DGENRE=Hard Rock
TTITLE0=Steal Your Fire
TTITLE1=Money To Burn
TTITLE2=Long Road
TTITLE3=Welcome To The Real World
TTITLE4=Higher Ground
TTITLE5=Higher Ground
TTITLE6=Freedom
TTITLE7=Won't Back Down
TTITLE8=Reach Out For Love
TTITLE9=Wathing The World Go By
TTITLE10=Don't Balme Me
EXTD=YEAR: 1992
EXTT0=
EXTT1=
EXTT2=
EXTT3=
EXTT4=
EXTT5=
EXTT6=
EXTT7=
EXTT8=
EXTT9=
EXTT10=
PLAYORDER=
